# xmcd
#
# Track frame offsets:
#	150
#	13138
#	30441
#	45041
#	60606
#	70943
#	83433
#	94331
#	110025
#	126516
#	141301
#
# Disc length: 2047 seconds
#
# Revision: 0
# Processed by: cddbd v1.5.2PL0 Copyright (c) Steve Scherf et al.
# Submitted via: audiograbber 1.83.01
#
DISCID=9007fd0b
DTITLE=Glen Campbell - Basic
DYEAR=1978
DGENRE=Country
TTITLE0=(You've Got To) Sing It Nice and Loud for Me Sonny
TTITLE1=Stranger in the Mirror
TTITLE2=Can You Fool
TTITLE3=(When I Feel Like) I Got No Love in Me
TTITLE4=I See Love
TTITLE5=Love Takes You Higher
TTITLE6=Never Tell You No Lies
TTITLE7=I'm Gonna Love You
TTITLE8=California
TTITLE9=Let's All Sing a Song About It
TTITLE10=Grafhaidh Me Thu
EXTD=
EXTT0=
EXTT1=
EXTT2=
EXTT3=
EXTT4=
EXTT5=
EXTT6=
EXTT7=
EXTT8=
EXTT9=
EXTT10=
PLAYORDER=
